<?xml version="1.0" encoding="UTF-8"?>
<svg xmlns="http://www.w3.org/2000/svg" viewBox="0 0 100 100" width="100" height="100">
  <defs>
    <linearGradient id="documentGradient" x1="0%" y1="0%" x2="100%" y2="100%">
      <stop offset="0%" style="stop-color:#3b82f6;stop-opacity:1" />
      <stop offset="100%" style="stop-color:#1d4ed8;stop-opacity:1" />
    </linearGradient>
    <linearGradient id="shieldGradient" x1="0%" y1="0%" x2="100%" y2="100%">
      <stop offset="0%" style="stop-color:#10b981;stop-opacity:1" />
      <stop offset="100%" style="stop-color:#059669;stop-opacity:1" />
    </linearGradient>
  </defs>
  
  <!-- Document pages -->
  <rect x="25" y="20" width="35" height="45" rx="2" fill="url(#documentGradient)" opacity="0.8"/>
  <rect x="30" y="25" width="35" height="45" rx="2" fill="url(#documentGradient)"/>
  
  <!-- Document lines -->
  <line x1="35" y1="35" x2="55" y2="35" stroke="white" stroke-width="1.5" opacity="0.8"/>
  <line x1="35" y1="40" x2="58" y2="40" stroke="white" stroke-width="1.5" opacity="0.8"/>
  <line x1="35" y1="45" x2="52" y2="45" stroke="white" stroke-width="1.5" opacity="0.8"/>
  <line x1="35" y1="50" x2="58" y2="50" stroke="white" stroke-width="1.5" opacity="0.8"/>
  <line x1="35" y1="55" x2="50" y2="55" stroke="white" stroke-width="1.5" opacity="0.8"/>
  
  <!-- Security shield -->
  <path d="M45 75 L40 70 L40 55 Q40 52 43 52 L47 52 Q50 52 50 55 L50 70 Z" fill="url(#shieldGradient)"/>
  
  <!-- Shield checkmark -->
  <path d="M42 62 L44 64 L48 60" stroke="white" stroke-width="2" fill="none" stroke-linecap="round" stroke-linejoin="round"/>
  
  <!-- Access control dots -->
  <circle cx="70" cy="35" r="3" fill="#f59e0b"/>
  <circle cx="70" cy="45" r="3" fill="#ef4444"/>
  <circle cx="70" cy="55" r="3" fill="#10b981"/>
  
  <!-- Connection lines -->
  <line x1="65" y1="35" x2="60" y2="35" stroke="#f59e0b" stroke-width="2" opacity="0.6"/>
  <line x1="65" y1="45" x2="60" y2="45" stroke="#ef4444" stroke-width="2" opacity="0.6"/>
  <line x1="65" y1="55" x2="60" y2="55" stroke="#10b981" stroke-width="2" opacity="0.6"/>
</svg>